0
SECTION
2
HEADER
9
$INSUNITS
70
4
9
$ACADVER
1
AC1014
9
$HANDSEED
5
FFFF
0
ENDSEC
0
SECTION
2
TABLES
0
TABLE
2
VPORT
5
8
100
AcDbSymbolTable
0
ENDTAB
0
TABLE
2
LTYPE
5
5
100
AcDbSymbolTable
0
LTYPE
5
14
100
AcDbSymbolTableRecord
100
AcDbLinetypeTableRecord
2
BYBLOCK
70
0
0
LTYPE
5
15
100
AcDbSymbolTableRecord
100
AcDbLinetypeTableRecord
2
BYLAYER
70
0
0
ENDTAB
0
TABLE
2
LAYER
5
2
100
AcDbSymbolTable
70
2
0
LAYER
5
50
100
AcDbSymbolTableRecord
100
AcDbLayerTableRecord
2
0
70
0
6
CONTINUOUS
0
ENDTAB
0
TABLE
2
STYLE
5
3
100
AcDbSymbolTable
70
1
0
STYLE
5
11
100
AcDbSymbolTableRecord
100
AcDbTextStyleTableRecord
2
STANDARD
70
0
0
ENDTAB
0
TABLE
2
VIEW
5
6
100
AcDbSymbolTable
70
0
0
ENDTAB
0
TABLE
2
UCS
5
7
100
AcDbSymbolTable
70
0
0
ENDTAB
0
TABLE
2
APPID
5
9
100
AcDbSymbolTable
70
2
0
APPID
5
12
100
AcDbSymbolTableRecord
100
AcDbRegAppTableRecord
2
ACAD
70
0
0
ENDTAB
0
TABLE
2
DIMSTYLE
5
A
100
AcDbSymbolTable
70
1
0
ENDTAB
0
TABLE
2
BLOCK_RECORD
5
1
100
AcDbSymbolTable
70
1
0
BLOCK_RECORD
5
1F
100
AcDbSymbolTableRecord
100
AcDbBlockTableRecord
2
*MODEL_SPACE
0
BLOCK_RECORD
5
1B
100
AcDbSymbolTableRecord
100
AcDbBlockTableRecord
2
*PAPER_SPACE
0
ENDTAB
0
ENDSEC
0
SECTION
2
BLOCKS
0
BLOCK
5
20
100
AcDbEntity
100
AcDbBlockBegin
2
*MODEL_SPACE
0
ENDBLK
5
21
100
AcDbEntity
100
AcDbBlockEnd
0
BLOCK
5
1C
100
AcDbEntity
100
AcDbBlockBegin
2
*PAPER_SPACE
0
ENDBLK
5
1D
100
AcDbEntity
100
AcDbBlockEnd
0
ENDSEC
0
SECTION
2
ENTITIES
0
CIRCLE
5
100
100
AcDbEntity
8
0
100
AcDbCircle
10
0
20
0
30
0
40
5
210
0
220
0
230
1
0
CIRCLE
5
101
100
AcDbEntity
8
0
100
AcDbCircle
10
0
20
-225
30
0
40
5
210
0
220
0
230
1
0
CIRCLE
5
102
100
AcDbEntity
8
0
100
AcDbCircle
10
225
20
0
30
0
40
5
210
0
220
0
230
1
0
CIRCLE
5
103
100
AcDbEntity
8
0
100
AcDbCircle
10
225
20
-225
30
0
40
5
210
0
220
0
230
1
0
LWPOLYLINE
5
104
100
AcDbEntity
8
0
100
AcDbPolyline
90
4
70
1
43
0.0
10
225
20
0
10
0
20
0
10
0
20
-225
10
225
20
-225
0
CIRCLE
5
105
100
AcDbEntity
8
0
100
AcDbCircle
10
0
20
0
30
0
40
26
210
0
220
0
230
1
0
CIRCLE
5
106
100
AcDbEntity
8
0
100
AcDbCircle
10
225
20
0
30
0
40
25.999999999999996
210
0
220
0
230
1
0
CIRCLE
5
107
100
AcDbEntity
8
0
100
AcDbCircle
10
225
20
-225
30
0
40
25.999999999999986
210
0
220
0
230
1
0
CIRCLE
5
108
100
AcDbEntity
8
0
100
AcDbCircle
10
0
20
-225
30
0
40
26
210
0
220
0
230
1
0
LWPOLYLINE
5
109
100
AcDbEntity
8
0
100
AcDbPolyline
90
4
70
1
43
0.0
10
215.00000000000003
20
-10
10
10.000000000000037
20
-10
10
10.000000000000036
20
-215
10
215.00000000000003
20
-215
0
LINE
5
110
100
AcDbEntity
8
0
100
AcDbLine
10
0
20
-225
30
0
11
225
21
0
31
0
0
LINE
5
111
100
AcDbEntity
8
0
100
AcDbLine
10
225
20
-225
30
0
11
0
21
0
31
0
0
LINE
5
112
100
AcDbEntity
8
0
100
AcDbLine
10
0
20
0
30
0
11
-18.384776310850238
21
-18.384776310850238
31
0
0
LINE
5
113
100
AcDbEntity
8
0
100
AcDbLine
10
0
20
0
30
0
11
18.384776310850238
21
18.384776310850238
31
0
0
LINE
5
114
100
AcDbEntity
8
0
100
AcDbLine
10
225
20
0
30
0
11
206.61522368914976
21
18.384776310850228
31
0
0
LINE
5
115
100
AcDbEntity
8
0
100
AcDbLine
10
225
20
0
30
0
11
243.38477631085024
21
-18.384776310850224
31
0
0
LINE
5
116
100
AcDbEntity
8
0
100
AcDbLine
10
225
20
-225
30
0
11
243.38477631085024
21
-206.61522368914976
31
0
0
LINE
5
117
100
AcDbEntity
8
0
100
AcDbLine
10
225
20
-225
30
0
11
206.61522368914976
21
-243.38477631085024
31
0
0
LINE
5
118
100
AcDbEntity
8
0
100
AcDbLine
10
0
20
-225
30
0
11
-18.384776310850246
21
-206.61522368914976
31
0
0
LINE
5
119
100
AcDbEntity
8
0
100
AcDbLine
10
0
20
-225
30
0
11
18.384776310850238
21
-243.38477631085024
31
0
0
LINE
5
120
100
AcDbEntity
8
0
100
AcDbLine
10
-18.384776310850238
20
-18.384776310850238
30
0
11
-18.384776310850246
21
-206.61522368914976
31
0
0
LINE
5
121
100
AcDbEntity
8
0
100
AcDbLine
10
18.384776310850238
20
18.384776310850238
30
0
11
206.61522368914976
21
18.384776310850228
31
0
0
LINE
5
122
100
AcDbEntity
8
0
100
AcDbLine
10
243.38477631085024
20
-18.384776310850224
30
0
11
243.38477631085024
21
-206.61522368914976
31
0
0
LINE
5
123
100
AcDbEntity
8
0
100
AcDbLine
10
206.61522368914976
20
-243.38477631085024
30
0
11
18.384776310850238
21
-243.38477631085024
31
0
0
LINE
5
124
100
AcDbEntity
8
0
100
AcDbLine
10
-2.6367796834847468e-15
20
-251
30
0
11
224.99999999999997
21
-251.00000000000006
31
0
0
LINE
5
125
100
AcDbEntity
8
0
100
AcDbLine
10
-26.000000000000007
20
-9.0205620750793969e-16
30
0
11
-26.000000000000007
21
-225
31
0
0
LINE
5
126
100
AcDbEntity
8
0
100
AcDbLine
10
5.863365348801608e-15
20
26.000000000000007
30
0
11
225
21
26.000000000000064
31
0
0
LINE
5
127
100
AcDbEntity
8
0
100
AcDbLine
10
250.99999999999997
20
-3.3306690738754696e-15
30
0
11
250.99999999999994
21
-225.00000000000003
31
0
0
CIRCLE
5
128
100
AcDbEntity
8
0
100
AcDbCircle
10
-17.492498859701076
20
-11.835644525915033
30
0
40
1.9999999999999996
210
0
220
0
230
1
0
CIRCLE
5
129
100
AcDbEntity
8
0
100
AcDbCircle
10
-14.934356325273367
20
14.93435632527347
30
0
40
1.9999999999999978
210
0
220
0
230
1
0
CIRCLE
5
130
100
AcDbEntity
8
0
100
AcDbCircle
10
11.835644525915018
20
17.492498859701126
30
0
40
1.9999999999999976
210
0
220
0
230
1
0
LINE
5
131
100
AcDbEntity
8
0
100
AcDbLine
10
112.5
20
-112.5
30
0
11
112.5
21
-102.17746388098402
31
0
0
CIRCLE
5
132
100
AcDbEntity
8
0
100
AcDbCircle
10
-17.49249885970114
20
-213.164355474085
30
0
40
1.9999999999999976
210
0
220
0
230
1
0
CIRCLE
5
133
100
AcDbEntity
8
0
100
AcDbCircle
10
-14.934356325273491
20
-239.93435632527337
30
0
40
1.9999999999999978
210
0
220
0
230
1
0
CIRCLE
5
134
100
AcDbEntity
8
0
100
AcDbCircle
10
11.83564452591501
20
-242.49249885970107
30
0
40
1.9999999999999996
210
0
220
0
230
1
0
CIRCLE
5
135
100
AcDbEntity
8
0
100
AcDbCircle
10
213.164355474085
20
-242.49249885970113
30
0
40
1.9999999999999976
210
0
220
0
230
1
0
CIRCLE
5
136
100
AcDbEntity
8
0
100
AcDbCircle
10
239.93435632527337
20
-239.93435632527348
30
0
40
1.9999999999999978
210
0
220
0
230
1
0
CIRCLE
5
137
100
AcDbEntity
8
0
100
AcDbCircle
10
242.49249885970107
20
-213.16435547408497
30
0
40
1.9999999999999996
210
0
220
0
230
1
0
CIRCLE
5
138
100
AcDbEntity
8
0
100
AcDbCircle
10
242.49249885970113
20
-11.835644525915042
30
0
40
1.9999999999999976
210
0
220
0
230
1
0
CIRCLE
5
139
100
AcDbEntity
8
0
100
AcDbCircle
10
239.93435632527348
20
14.934356325273345
30
0
40
1.9999999999999978
210
0
220
0
230
1
0
CIRCLE
5
140
100
AcDbEntity
8
0
100
AcDbCircle
10
213.16435547408497
20
17.492498859701058
30
0
40
1.9999999999999996
210
0
220
0
230
1
0
LINE
5
141
100
AcDbEntity
8
0
100
AcDbLine
10
-7.0000001043081284
20
0
30
0
11
-7.0000001043081284
21
-217.99999989569187
31
0
0
LINE
5
142
100
AcDbEntity
8
0
100
AcDbLine
10
232.00000010430813
20
0
30
0
11
232.00000010430813
21
-217.99999989569187
31
0
0
LINE
5
143
100
AcDbEntity
8
0
100
AcDbLine
10
6.0000000894069672
20
6.3177545960982719
30
0
11
218.68224540390167
21
6.3177545960982719
31
0
0
LINE
5
144
100
AcDbEntity
8
0
100
AcDbLine
10
112.5
20
-112.5
30
0
11
125
21
-112.5
31
0
0
LINE
5
145
100
AcDbEntity
8
0
100
AcDbLine
10
6.0000000894069672
20
-231.31775459609827
30
0
11
218.68224540390167
21
-231.31775459609827
31
0
0
ENDSEC
0
SECTION
2
OBJECTS
0
DICTIONARY
5
C
100
AcDbDictionary
3
ACAD_GROUP
350
D
3
ACAD_MLINESTYLE
350
17
0
DICTIONARY
5
D
100
AcDbDictionary
0
DICTIONARY
5
1A
330
C
100
AcDbDictionary
0
DICTIONARY
5
17
100
AcDbDictionary
0
ENDSEC
0
EOF
