0
SECTION
2
HEADER
9
$INSUNITS
70
4
9
$ACADVER
1
AC1014
9
$HANDSEED
5
FFFF
0
ENDSEC
0
SECTION
2
TABLES
0
TABLE
2
VPORT
5
8
100
AcDbSymbolTable
0
ENDTAB
0
TABLE
2
LTYPE
5
5
100
AcDbSymbolTable
0
LTYPE
5
14
100
AcDbSymbolTableRecord
100
AcDbLinetypeTableRecord
2
BYBLOCK
70
0
0
LTYPE
5
15
100
AcDbSymbolTableRecord
100
AcDbLinetypeTableRecord
2
BYLAYER
70
0
0
ENDTAB
0
TABLE
2
LAYER
5
2
100
AcDbSymbolTable
70
2
0
LAYER
5
50
100
AcDbSymbolTableRecord
100
AcDbLayerTableRecord
2
0
70
0
6
CONTINUOUS
0
ENDTAB
0
TABLE
2
STYLE
5
3
100
AcDbSymbolTable
70
1
0
STYLE
5
11
100
AcDbSymbolTableRecord
100
AcDbTextStyleTableRecord
2
STANDARD
70
0
0
ENDTAB
0
TABLE
2
VIEW
5
6
100
AcDbSymbolTable
70
0
0
ENDTAB
0
TABLE
2
UCS
5
7
100
AcDbSymbolTable
70
0
0
ENDTAB
0
TABLE
2
APPID
5
9
100
AcDbSymbolTable
70
2
0
APPID
5
12
100
AcDbSymbolTableRecord
100
AcDbRegAppTableRecord
2
ACAD
70
0
0
ENDTAB
0
TABLE
2
DIMSTYLE
5
A
100
AcDbSymbolTable
70
1
0
ENDTAB
0
TABLE
2
BLOCK_RECORD
5
1
100
AcDbSymbolTable
70
1
0
BLOCK_RECORD
5
1F
100
AcDbSymbolTableRecord
100
AcDbBlockTableRecord
2
*MODEL_SPACE
0
BLOCK_RECORD
5
1B
100
AcDbSymbolTableRecord
100
AcDbBlockTableRecord
2
*PAPER_SPACE
0
ENDTAB
0
ENDSEC
0
SECTION
2
BLOCKS
0
BLOCK
5
20
100
AcDbEntity
100
AcDbBlockBegin
2
*MODEL_SPACE
0
ENDBLK
5
21
100
AcDbEntity
100
AcDbBlockEnd
0
BLOCK
5
1C
100
AcDbEntity
100
AcDbBlockBegin
2
*PAPER_SPACE
0
ENDBLK
5
1D
100
AcDbEntity
100
AcDbBlockEnd
0
ENDSEC
0
SECTION
2
ENTITIES
0
CIRCLE
5
100
100
AcDbEntity
8
0
100
AcDbCircle
10
0
20
0
30
0
40
2.8999999999999999
210
0
220
0
230
1
0
CIRCLE
5
101
100
AcDbEntity
8
0
100
AcDbCircle
10
-70
20
70.000000000000014
30
0
40
7.5000000000000009
210
0
220
0
230
1
0
CIRCLE
5
102
100
AcDbEntity
8
0
100
AcDbCircle
10
-70
20
-70.000000000000014
30
0
40
7.5000000000000009
210
0
220
0
230
1
0
CIRCLE
5
103
100
AcDbEntity
8
0
100
AcDbCircle
10
69.999999999999986
20
70.000000000000028
30
0
40
7.5
210
0
220
0
230
1
0
CIRCLE
5
104
100
AcDbEntity
8
0
100
AcDbCircle
10
69.999999999999972
20
-70.000000000000014
30
0
40
7.5
210
0
220
0
230
1
0
LWPOLYLINE
5
105
100
AcDbEntity
8
0
100
AcDbPolyline
90
4
70
1
43
0.0
10
70
20
70.000000000000028
10
-70
20
70.000000000000014
10
-70
20
-70.000000000000014
10
69.999999999999972
20
-70
0
LINE
5
106
100
AcDbEntity
8
0
100
AcDbLine
10
-70
20
70.000000000000014
30
0
11
69.999999999999972
21
-70.000000000000014
31
0
0
LINE
5
107
100
AcDbEntity
8
0
100
AcDbLine
10
-70
20
-70.000000000000014
30
0
11
69.999999999999986
21
70.000000000000028
31
0
0
CIRCLE
5
108
100
AcDbEntity
8
0
100
AcDbCircle
10
0
20
0
30
0
40
25.000000372529033
210
0
220
0
230
1
0
CIRCLE
5
109
100
AcDbEntity
8
0
100
AcDbCircle
10
-70
20
70.000000000000014
30
0
40
15
210
0
220
0
230
1
0
SPLINE
5
110
100
AcDbEntity
8
0
100
AcDbSpline
70
4
71
5
72
21
73
15
74
0
42
0.000000001
43
0.0000000001
44
0.0000000001
40
0
40
0
40
0
40
0
40
0
40
0
40
0.10000000000000001
40
0.20000000000000001
40
0.30000000000000004
40
0.40000000000000002
40
0.5
40
0.59999999999999998
40
0.69999999999999996
40
0.79999999999999993
40
0.89999999999999991
40
1
40
1
40
1
40
1
40
1
40
1
41
1
41
1
41
1
41
1
41
1
41
1
41
1
41
1
41
1
41
1
41
1
41
1
41
1
41
1
41
1
10
-75.991864095766445
20
56.248724980647623
30
0
10
-74.745766047415174
20
55.540217693264594
30
0
10
-72.281601721210421
20
54.040781001542683
30
0
10
-68.669446458022975
20
51.544382035421719
30
0
10
-64.017199724939402
20
47.760789178163151
30
0
10
-58.454706037108046
20
42.479006856874413
30
0
10
-53.122041508471312
20
36.882476257718565
30
0
10
-47.997789264721789
20
31.174175993548197
30
0
10
-43.06324136038743
20
25.455149961389655
30
0
10
-38.301504883879531
20
19.663812716462278
30
0
10
-33.700624804244939
20
13.644275227752887
30
0
10
-30.143621782050705
20
8.4909839679265815
30
0
10
-27.544862374495544
20
4.3590118910784099
30
0
10
-25.843154427929601
20
1.4746279781325593
30
0
10
-25.000000372529033
20
-8.6736173798840355e-18
30
0
0
LINE
5
111
100
AcDbEntity
8
0
100
AcDbLine
10
-70
20
0
30
0
11
69.999999999999986
21
1.7763568394002505e-14
31
0
0
CIRCLE
5
112
100
AcDbEntity
8
0
100
AcDbCircle
10
-111.98837727839773
20
111.98837727839776
30
0
40
2
210
0
220
0
230
1
0
CIRCLE
5
113
100
AcDbEntity
8
0
100
AcDbCircle
10
-111.98837727839773
20
111.98837727839776
30
0
40
14.999999999999991
210
0
220
0
230
1
0
LINE
5
114
100
AcDbEntity
8
0
100
AcDbLine
10
-126.98837727839772
20
111.98837727839776
30
0
11
-96.988377278397749
21
111.98837727839776
31
0
0
LINE
5
115
100
AcDbEntity
8
0
100
AcDbLine
10
-111.98837727839779
20
126.98837727839775
30
0
11
-111.98837727839768
21
96.988377278397763
31
0
0
LWPOLYLINE
5
116
100
AcDbEntity
8
0
100
AcDbPolyline
90
4
70
1
43
0.0
10
-124.98837727839785
20
108.98837727839778
10
-124.98837727839785
20
114.98837727839778
10
-121.98837727839785
20
114.98837727839778
10
-121.98837727839785
20
108.98837727839778
0
LWPOLYLINE
5
117
100
AcDbEntity
8
0
100
AcDbPolyline
90
4
70
1
43
0.0
10
-114.98837727839778
20
121.98837727839776
10
-108.98837727839776
20
121.98837727839776
10
-108.98837727839776
20
124.98837727839778
10
-114.98837727839778
20
124.98837727839778
0
LINE
5
118
100
AcDbEntity
8
0
100
AcDbLine
10
-70
20
70.000000000000014
30
0
11
-111.98837727839773
21
111.98837727839776
31
0
0
LINE
5
119
100
AcDbEntity
8
0
100
AcDbLine
10
-100.87523751860499
20
79.662034083008592
30
0
11
-80.606601717798185
21
59.393398282201801
31
0
0
LINE
5
120
100
AcDbEntity
8
0
100
AcDbLine
10
-79.662034083008621
20
100.87523751860505
30
0
11
-59.393398282201773
21
80.606601717798213
31
0
0
SPLINE
5
121
100
AcDbEntity
8
0
100
AcDbSpline
70
4
71
5
72
21
73
15
74
0
42
0.000000001
43
0.0000000001
44
0.0000000001
40
0
40
0
40
0
40
0
40
0
40
0
40
0.10000000000000001
40
0.20000000000000001
40
0.30000000000000004
40
0.40000000000000002
40
0.5
40
0.59999999999999998
40
0.69999999999999996
40
0.79999999999999993
40
0.89999999999999991
40
1
40
1
40
1
40
1
40
1
40
1
41
1
41
1
41
1
41
1
41
1
41
1
41
1
41
1
41
1
41
1
41
1
41
1
41
1
41
1
41
1
10
-56.248724980647609
20
75.991864095766459
30
0
10
-55.540217693264573
20
74.745766047415188
30
0
10
-54.040781001542648
20
72.28160172121045
30
0
10
-51.544382035421769
20
68.669446458022975
30
0
10
-47.760789178163265
20
64.01719972493936
30
0
10
-42.479006856874555
20
58.454706037107968
30
0
10
-36.882476257718665
20
53.122041508471263
30
0
10
-31.174175993548179
20
47.997789264721789
30
0
10
-25.455149961389509
20
43.063241360387522
30
0
10
-19.663812716462061
20
38.301504883879737
30
0
10
-13.644275227752702
20
33.700624804245138
30
0
10
-8.4909839679264891
20
30.143621782050833
30
0
10
-4.359011891078393
20
27.544862374495544
30
0
10
-1.4746279781325586
20
25.84315442792958
30
0
10
0
20
25.000000372529012
30
0
0
SPLINE
5
122
100
AcDbEntity
8
0
100
AcDbSpline
70
4
71
5
72
21
73
15
74
0
42
0.000000001
43
0.0000000001
44
0.0000000001
40
0
40
0
40
0
40
0
40
0
40
0
40
0.10000000000000001
40
0.20000000000000001
40
0.30000000000000004
40
0.40000000000000002
40
0.5
40
0.59999999999999998
40
0.69999999999999996
40
0.79999999999999993
40
0.89999999999999991
40
1
40
1
40
1
40
1
40
1
40
1
41
1
41
1
41
1
41
1
41
1
41
1
41
1
41
1
41
1
41
1
41
1
41
1
41
1
41
1
41
1
10
-56.248724980647644
20
-75.991864095766431
30
0
10
-55.540217693264609
20
-74.745766047415174
30
0
10
-54.040781001542697
20
-72.281601721210407
30
0
10
-51.544382035421741
20
-68.669446458022975
30
0
10
-47.760789178163172
20
-64.017199724939388
30
0
10
-42.47900685687442
20
-58.454706037108039
30
0
10
-36.882476257718572
20
-53.122041508471305
30
0
10
-31.174175993548204
20
-47.997789264721781
30
0
10
-25.455149961389662
20
-43.063241360387423
30
0
10
-19.663812716462289
20
-38.301504883879531
30
0
10
-13.644275227752892
20
-33.700624804244931
30
0
10
-8.4909839679265886
20
-30.143621782050705
30
0
10
-4.3590118910784161
20
-27.544862374495544
30
0
10
-1.4746279781325653
20
-25.843154427929601
30
0
10
-5.5424415884639607e-15
20
-25.000000372529033
30
0
0
SPLINE
5
123
100
AcDbEntity
8
0
100
AcDbSpline
70
4
71
5
72
21
73
15
74
0
42
0.000000001
43
0.0000000001
44
0.0000000001
40
0
40
0
40
0
40
0
40
0
40
0
40
0.10000000000000001
40
0.20000000000000001
40
0.30000000000000004
40
0.40000000000000002
40
0.5
40
0.59999999999999998
40
0.69999999999999996
40
0.79999999999999993
40
0.89999999999999991
40
1
40
1
40
1
40
1
40
1
40
1
41
1
41
1
41
1
41
1
41
1
41
1
41
1
41
1
41
1
41
1
41
1
41
1
41
1
41
1
41
1
10
-75.991864095766459
20
-56.248724980647594
30
0
10
-74.745766047415202
20
-55.540217693264552
30
0
10
-72.281601721210436
20
-54.040781001542648
30
0
10
-68.669446458023003
20
-51.544382035421698
30
0
10
-64.017199724939417
20
-47.76078917816313
30
0
10
-58.454706037108053
20
-42.479006856874399
30
0
10
-53.122041508471327
20
-36.882476257718544
30
0
10
-47.997789264721796
20
-31.174175993548182
30
0
10
-43.06324136038743
20
-25.455149961389644
30
0
10
-38.301504883879531
20
-19.663812716462271
30
0
10
-33.700624804244931
20
-13.644275227752882
30
0
10
-30.14362178205069
20
-8.4909839679265797
30
0
10
-27.544862374495523
20
-4.359011891078409
30
0
10
-25.843154427929584
20
-1.47462797813256
30
0
10
-25.000000372529016
20
-1.1015491590910897e-15
30
0
0
LINE
5
124
100
AcDbEntity
8
0
100
AcDbLine
10
-100.875237518605
20
-79.662034083008507
30
0
11
-80.606601717798227
21
-59.393398282201758
31
0
0
LINE
5
125
100
AcDbEntity
8
0
100
AcDbLine
10
-79.662034083008692
20
-100.87523751860505
30
0
11
-59.393398282201815
21
-80.606601717798171
31
0
0
CIRCLE
5
126
100
AcDbEntity
8
0
100
AcDbCircle
10
-111.98837727839779
20
-111.98837727839772
30
0
40
14.999999999999991
210
0
220
0
230
1
0
LWPOLYLINE
5
127
100
AcDbEntity
8
0
100
AcDbPolyline
90
4
70
1
43
0.0
10
-121.98837727839779
20
-114.98837727839773
10
-121.98837727839779
20
-108.98837727839773
10
-124.98837727839779
20
-108.98837727839773
10
-124.98837727839779
20
-114.98837727839773
0
LWPOLYLINE
5
128
100
AcDbEntity
8
0
100
AcDbPolyline
90
4
70
1
43
0.0
10
-108.98837727839782
20
-121.98837727839782
10
-108.98837727839782
20
-124.98837727839783
10
-114.98837727839782
20
-124.98837727839783
10
-114.98837727839782
20
-121.98837727839782
0
CIRCLE
5
129
100
AcDbEntity
8
0
100
AcDbCircle
10
-111.98837727839779
20
-111.98837727839772
30
0
40
2
210
0
220
0
230
1
0
CIRCLE
5
130
100
AcDbEntity
8
0
100
AcDbCircle
10
-70.000000000000028
20
-69.999999999999986
30
0
40
15
210
0
220
0
230
1
0
SPLINE
5
131
100
AcDbEntity
8
0
100
AcDbSpline
70
4
71
5
72
21
73
15
74
0
42
0.000000001
43
0.0000000001
44
0.0000000001
40
0
40
0
40
0
40
0
40
0
40
0
40
0.10000000000000001
40
0.20000000000000001
40
0.30000000000000004
40
0.40000000000000002
40
0.5
40
0.59999999999999998
40
0.69999999999999996
40
0.79999999999999993
40
0.89999999999999991
40
1
40
1
40
1
40
1
40
1
40
1
41
1
41
1
41
1
41
1
41
1
41
1
41
1
41
1
41
1
41
1
41
1
41
1
41
1
41
1
41
1
10
75.991864095766431
20
-56.248724980647637
30
0
10
74.745766047415174
20
-55.540217693264601
30
0
10
72.281601721210407
20
-54.04078100154269
30
0
10
68.669446458022975
20
-51.544382035421734
30
0
10
64.017199724939388
20
-47.760789178163165
30
0
10
58.454706037108039
20
-42.47900685687442
30
0
10
53.122041508471305
20
-36.882476257718565
30
0
10
47.997789264721789
20
-31.1741759935482
30
0
10
43.06324136038743
20
-25.455149961389658
30
0
10
38.301504883879531
20
-19.663812716462282
30
0
10
33.700624804244939
20
-13.644275227752891
30
0
10
30.143621782050705
20
-8.4909839679265851
30
0
10
27.544862374495544
20
-4.3590118910784135
30
0
10
25.843154427929601
20
-1.4746279781325624
30
0
10
25.000000372529033
20
-3.0529434261101478e-15
30
0
0
SPLINE
5
132
100
AcDbEntity
8
0
100
AcDbSpline
70
4
71
5
72
21
73
15
74
0
42
0.000000001
43
0.0000000001
44
0.0000000001
40
0
40
0
40
0
40
0
40
0
40
0
40
0.10000000000000001
40
0.20000000000000001
40
0.30000000000000004
40
0.40000000000000002
40
0.5
40
0.59999999999999998
40
0.69999999999999996
40
0.79999999999999993
40
0.89999999999999991
40
1
40
1
40
1
40
1
40
1
40
1
41
1
41
1
41
1
41
1
41
1
41
1
41
1
41
1
41
1
41
1
41
1
41
1
41
1
41
1
41
1
10
56.248724980647602
20
-75.991864095766459
30
0
10
55.540217693264566
20
-74.745766047415202
30
0
10
54.040781001542655
20
-72.281601721210436
30
0
10
51.544382035421705
20
-68.669446458023003
30
0
10
47.760789178163137
20
-64.017199724939417
30
0
10
42.479006856874399
20
-58.454706037108053
30
0
10
36.882476257718551
20
-53.122041508471327
30
0
10
31.174175993548189
20
-47.997789264721789
30
0
10
25.455149961389651
20
-43.063241360387423
30
0
10
19.663812716462274
20
-38.301504883879531
30
0
10
13.644275227752885
20
-33.700624804244924
30
0
10
8.4909839679265833
20
-30.14362178205069
30
0
10
4.3590118910784117
20
-27.544862374495523
30
0
10
1.4746279781325629
20
-25.843154427929584
30
0
10
3.5910473214449008e-15
20
-25.000000372529016
30
0
0
LINE
5
133
100
AcDbEntity
8
0
100
AcDbLine
10
79.662034083008493
20
-100.87523751860496
30
0
11
59.393398282201765
21
-80.606601717798213
31
0
0
LINE
5
134
100
AcDbEntity
8
0
100
AcDbLine
10
100.87523751860496
20
-79.662034083008592
30
0
11
80.606601717798185
21
-59.393398282201808
31
0
0
CIRCLE
5
135
100
AcDbEntity
8
0
100
AcDbCircle
10
111.98837727839772
20
-111.98837727839779
30
0
40
14.999999999999991
210
0
220
0
230
1
0
LWPOLYLINE
5
136
100
AcDbEntity
8
0
100
AcDbPolyline
90
4
70
1
43
0.0
10
114.98837727839776
20
-121.98837727839779
10
108.98837727839775
20
-121.98837727839779
10
108.98837727839775
20
-124.98837727839779
10
114.98837727839776
20
-124.98837727839779
0
LWPOLYLINE
5
137
100
AcDbEntity
8
0
100
AcDbPolyline
90
4
70
1
43
0.0
10
121.98837727839782
20
-108.98837727839779
10
124.98837727839783
20
-108.98837727839779
10
124.98837727839783
20
-114.98837727839779
10
121.98837727839782
20
-114.98837727839779
0
CIRCLE
5
138
100
AcDbEntity
8
0
100
AcDbCircle
10
113.01162272160227
20
-113.01162272160224
30
0
40
2
210
0
220
0
230
1
0
CIRCLE
5
139
100
AcDbEntity
8
0
100
AcDbCircle
10
69.999999999999986
20
-70.000000000000028
30
0
40
15
210
0
220
0
230
1
0
SPLINE
5
140
100
AcDbEntity
8
0
100
AcDbSpline
70
4
71
5
72
21
73
15
74
0
42
0.000000001
43
0.0000000001
44
0.0000000001
40
0
40
0
40
0
40
0
40
0
40
0
40
0.10000000000000001
40
0.20000000000000001
40
0.30000000000000004
40
0.40000000000000002
40
0.5
40
0.59999999999999998
40
0.69999999999999996
40
0.79999999999999993
40
0.89999999999999991
40
1
40
1
40
1
40
1
40
1
40
1
41
1
41
1
41
1
41
1
41
1
41
1
41
1
41
1
41
1
41
1
41
1
41
1
41
1
41
1
41
1
10
56.248724980647644
20
75.991864095766431
30
0
10
55.540217693264609
20
74.745766047415174
30
0
10
54.050573974174483
20
72.281122871116224
30
0
10
51.598235097991733
20
68.666813187712421
30
0
10
47.914053628696969
20
64.00970550440455
30
0
10
42.732101359671844
20
58.442330394786183
30
0
10
37.112822676349076
20
53.110778186447391
30
0
10
31.194859614978618
20
47.996777891111989
30
0
10
25.094591716870035
20
43.080871691437707
30
0
10
18.889227082746508
20
38.339380043739197
30
0
10
12.625796908289198
20
33.750425662258955
30
0
10
7.587933582522993
20
30.187778523695783
30
0
10
3.7982760001599654
20
27.572280855531368
30
0
10
1.2669127690348212
20
25.853311144511775
30
0
10
5.5424415884639607e-15
20
25.000000372529033
30
0
0
SPLINE
5
141
100
AcDbEntity
8
0
100
AcDbSpline
70
4
71
5
72
21
73
15
74
0
42
0.000000001
43
0.0000000001
44
0.0000000001
40
0
40
0
40
0
40
0
40
0
40
0
40
0.10000000000000001
40
0.20000000000000001
40
0.30000000000000004
40
0.40000000000000002
40
0.5
40
0.59999999999999998
40
0.69999999999999996
40
0.79999999999999993
40
0.89999999999999991
40
1
40
1
40
1
40
1
40
1
40
1
41
1
41
1
41
1
41
1
41
1
41
1
41
1
41
1
41
1
41
1
41
1
41
1
41
1
41
1
41
1
10
75.991864095766459
20
56.248724980647594
30
0
10
74.745766047415202
20
55.540217693264552
30
0
10
72.281601721210436
20
54.040781001542648
30
0
10
68.669446458023003
20
51.544382035421698
30
0
10
64.017199724939417
20
47.76078917816313
30
0
10
58.454706037108053
20
42.479006856874399
30
0
10
53.122041508471327
20
36.882476257718544
30
0
10
47.997789264721796
20
31.174175993548182
30
0
10
43.06324136038743
20
25.455149961389644
30
0
10
38.301504883879531
20
19.663812716462271
30
0
10
33.700624804244931
20
13.644275227752882
30
0
10
30.14362178205069
20
8.4909839679265797
30
0
10
27.544862374495523
20
4.359011891078409
30
0
10
25.843154427929584
20
1.47462797813256
30
0
10
25.000000372529016
20
1.1015491590910897e-15
30
0
0
LINE
5
142
100
AcDbEntity
8
0
100
AcDbLine
10
100.87523751860503
20
79.66203408300855
30
0
11
80.606601717798227
21
59.393398282201758
31
0
0
LINE
5
143
100
AcDbEntity
8
0
100
AcDbLine
10
79.662034083008677
20
100.87523751860502
30
0
11
59.393398282201815
21
80.606601717798171
31
0
0
CIRCLE
5
144
100
AcDbEntity
8
0
100
AcDbCircle
10
111.98837727839779
20
111.98837727839772
30
0
40
14.999999999999991
210
0
220
0
230
1
0
LWPOLYLINE
5
145
100
AcDbEntity
8
0
100
AcDbPolyline
90
4
70
1
43
0.0
10
121.98837727839779
20
114.98837727839773
10
121.98837727839779
20
108.98837727839773
10
124.98837727839779
20
108.98837727839773
10
124.98837727839779
20
114.98837727839773
0
LWPOLYLINE
5
146
100
AcDbEntity
8
0
100
AcDbPolyline
90
4
70
1
43
0.0
10
108.98837727839782
20
121.98837727839782
10
108.98837727839782
20
124.98837727839783
10
114.98837727839782
20
124.98837727839783
10
114.98837727839782
20
121.98837727839782
0
CIRCLE
5
147
100
AcDbEntity
8
0
100
AcDbCircle
10
111.98837727839779
20
111.98837727839772
30
0
40
2
210
0
220
0
230
1
0
CIRCLE
5
148
100
AcDbEntity
8
0
100
AcDbCircle
10
70.000000000000028
20
69.999999999999986
30
0
40
15
210
0
220
0
230
1
0
LWPOLYLINE
5
149
100
AcDbEntity
8
0
100
AcDbPolyline
90
8
70
1
43
0.0
10
-126.98837727839776
20
-111.98837727839771
10
-126.98837727839772
20
111.98837727839776
42
-0.41421356237309537
10
-111.98837727839766
20
126.98837727839779
10
111.98837727839781
20
126.98837727839768
42
-0.41421356237309509
10
126.98837727839779
20
111.98837727839768
10
126.98837727839771
20
-111.98837727839779
42
-0.41421356237309537
10
111.98837727839766
20
-126.98837727839779
10
-111.98837727839781
20
-126.98837727839768
42
-0.41421356237309509
0
LINE
5
150
100
AcDbEntity
8
0
100
AcDbLine
10
-117.94630533047055
20
72.590966271143088
30
0
11
-117.94630533047054
21
-72.590966271143046
31
0
0
LINE
5
151
100
AcDbEntity
8
0
100
AcDbLine
10
-72.590966271143202
20
-117.94630533047052
30
0
11
72.59096627114296
21
-117.94630533047054
31
0
0
LINE
5
152
100
AcDbEntity
8
0
100
AcDbLine
10
117.94630533047049
20
-72.590966271143088
30
0
11
117.94630533047055
21
72.590966271143031
31
0
0
LINE
5
153
100
AcDbEntity
8
0
100
AcDbLine
10
72.590966271143174
20
117.94630533047049
30
0
11
-72.59096627114306
21
117.94630533047055
31
0
0
ARC
5
154
100
AcDbEntity
8
0
100
AcDbCircle
10
-72.590966271143088
20
107.94630533047052
30
0
40
10.000000000000036
210
0
220
-0
230
1
100
AcDbArc
50
89.999999999999844
51
224.99999999999977
0
ARC
5
155
100
AcDbEntity
8
0
100
AcDbCircle
10
72.590966271143188
20
107.94630533047049
30
0
40
10.000000000000011
210
-0
220
0
230
1
100
AcDbArc
50
-44.99999999999995
51
90.000000000000071
0
ARC
5
156
100
AcDbEntity
8
0
100
AcDbCircle
10
107.94630533047054
20
72.59096627114306
30
0
40
10.000000000000018
210
-0
220
0
230
1
100
AcDbArc
50
0
51
135.00000000000009
0
ARC
5
157
100
AcDbEntity
8
0
100
AcDbCircle
10
107.94630533047047
20
-72.590966271143088
30
0
40
10.000000000000036
210
0
220
0
230
1
100
AcDbArc
50
-135
51
0
0
ARC
5
158
100
AcDbEntity
8
0
100
AcDbCircle
10
72.590966271142904
20
-107.94630533047044
30
0
40
10.000000000000089
210
-0
220
0
230
1
100
AcDbArc
50
-89.999999999999702
51
44.999999999999538
0
ARC
5
159
100
AcDbEntity
8
0
100
AcDbCircle
10
-72.590966271143259
20
-107.94630533047054
30
0
40
9.9999999999999751
210
0
220
0
230
1
100
AcDbArc
50
134.99999999999977
51
270.00000000000034
0
ARC
5
160
100
AcDbEntity
8
0
100
AcDbCircle
10
-107.94630533047052
20
-72.590966271143046
30
0
40
10.000000000000018
210
0
220
0
230
1
100
AcDbArc
50
180
51
315.00000000000028
0
ARC
5
161
100
AcDbEntity
8
0
100
AcDbCircle
10
-107.94630533047049
20
72.590966271143088
30
0
40
10.00000000000005
210
0
220
-0
230
1
100
AcDbArc
50
45
51
180
0
LWPOLYLINE
5
162
100
AcDbEntity
8
0
100
AcDbPolyline
90
4
70
1
43
0.0
10
113.01162272160229
20
111.98837727839776
10
-111.98837727839773
20
111.98837727839776
10
-111.98837727839773
20
-113.01162272160224
10
113.01162272160227
20
-113.01162272160224
0
ARC
5
163
100
AcDbEntity
8
0
100
AcDbCircle
10
-70.000000000000028
20
-69.999999999999972
30
0
40
14.999999999999989
210
0
220
0
230
1
100
AcDbArc
50
113.54427521438615
51
134.99999999999997
0
ARC
5
164
100
AcDbEntity
8
0
100
AcDbCircle
10
-70.000000000000128
20
-69.999999999999858
30
0
40
15.000000000000146
210
0
220
0
230
1
100
AcDbArc
50
315
51
336.4557247856136
0
ARC
5
165
100
AcDbEntity
8
0
100
AcDbCircle
10
70.000000000000028
20
-69.999999999999972
30
0
40
15.00000000000006
210
0
220
0
230
1
100
AcDbArc
50
203.54427521438626
51
224.99999999999991
0
ARC
5
166
100
AcDbEntity
8
0
100
AcDbCircle
10
69.999999999999972
20
-70.000000000000028
30
0
40
15.00000000000002
210
0
220
-0
230
1
100
AcDbArc
50
45.000000000000007
51
66.455724785613825
0
ARC
5
167
100
AcDbEntity
8
0
100
AcDbCircle
10
70.000000000000028
20
69.999999999999972
30
0
40
14.999999999999989
210
0
220
0
230
1
100
AcDbArc
50
293.54427521438618
51
314.99999999999994
0
ARC
5
168
100
AcDbEntity
8
0
100
AcDbCircle
10
86.18672432153005
20
58.969695791475438
30
0
40
34.438902687430158
210
0
220
0
230
1
100
AcDbArc
50
141.07744888617663
51
150.37827589943697
0
ARC
5
169
100
AcDbEntity
8
0
100
AcDbCircle
10
-86.186724321530875
20
58.969695791474983
30
0
40
34.438902687431138
210
0
220
-0
230
1
100
AcDbArc
50
29.621724100563025
51
38.922551113823118
0
ARC
5
170
100
AcDbEntity
8
0
100
AcDbCircle
10
-58.96969579147526
20
86.186724321530363
30
0
40
34.438902687430549
210
0
220
0
230
1
100
AcDbArc
50
231.07744888617668
51
240.37827589943697
0
ENDSEC
0
SECTION
2
OBJECTS
0
DICTIONARY
5
C
100
AcDbDictionary
3
ACAD_GROUP
350
D
3
ACAD_MLINESTYLE
350
17
0
DICTIONARY
5
D
100
AcDbDictionary
0
DICTIONARY
5
1A
330
C
100
AcDbDictionary
0
DICTIONARY
5
17
100
AcDbDictionary
0
ENDSEC
0
EOF
